<svg xmlns="http://www.w3.org/2000/svg" viewBox="0 0 960 600" role="img" aria-labelledby="t d"><title id="t">Growth evidence</title><desc id="d">Four evidence streams converge into a careful longitudinal timeline.</desc><rect width="960" height="600" rx="24" fill="#e8e9e5"/><g fill="none" stroke="#26332e" stroke-width="4"><path d="M90 140h220l180 160M90 245h220l180 55M90 355h220l180-55M90 460h220l180-160"/><path d="M490 300h370"/></g><g fill="#2b725f"><circle cx="90" cy="140" r="20"/><circle cx="90" cy="245" r="20"/><circle cx="90" cy="355" r="20"/><circle cx="90" cy="460" r="20"/></g><circle cx="490" cy="300" r="34" fill="#426b8c"/><g fill="#426b8c"><rect x="565" y="330" width="34" height="85" rx="4"/><rect x="630" y="280" width="34" height="135" rx="4"/><rect x="695" y="230" width="34" height="185" rx="4"/><rect x="760" y="190" width="34" height="225" rx="4"/></g><path d="m565 295 82-49 65 22 100-105" fill="none" stroke="#b87826" stroke-width="6" stroke-linecap="round"/><circle cx="812" cy="163" r="10" fill="#b87826"/></svg>
