<svg xmlns="http://www.w3.org/2000/svg" viewBox="0 0 960 600" role="img" aria-labelledby="t d"><title id="t">Paper Lab cycle</title><desc id="d">A paper moves through reading passes, review, recall, and implementation.</desc><rect width="960" height="600" rx="24" fill="#e8e9e5"/><path d="M115 300h730" stroke="#26332e" stroke-width="4" stroke-dasharray="9 12"/><g fill="#fff" stroke="#26332e" stroke-width="4"><circle cx="120" cy="300" r="52"/><circle cx="264" cy="300" r="52"/><circle cx="408" cy="300" r="52"/><circle cx="552" cy="300" r="52"/><circle cx="696" cy="300" r="52"/><circle cx="840" cy="300" r="52"/></g><g fill="#2b725f"><circle cx="120" cy="300" r="14"/><circle cx="264" cy="300" r="19"/><circle cx="408" cy="300" r="24"/><circle cx="552" cy="300" r="29"/></g><path d="m672 300 16 16 32-36" fill="none" stroke="#426b8c" stroke-width="7" stroke-linecap="round"/><path d="M812 318c0-38 56-38 56 0M826 282v-20M854 282v-20" fill="none" stroke="#426b8c" stroke-width="6" stroke-linecap="round"/><path d="M840 248c0-90-720-90-720 0" fill="none" stroke="#b87826" stroke-width="5" stroke-linecap="round"/><path d="m110 238 10 12 12-12" fill="none" stroke="#b87826" stroke-width="5"/></svg>
