<svg xmlns="http://www.w3.org/2000/svg" viewBox="0 0 960 600" role="img" aria-labelledby="t d"><title id="t">gnaroshi.dev publishing architecture</title><desc id="d">Studio checkpoints private sources, publishes a sanitized feed, and the website renders it.</desc><rect width="960" height="600" rx="24" fill="#e8e9e5"/><g fill="#fff" stroke="#26332e" stroke-width="4"><rect x="55" y="228" width="150" height="144" rx="10"/><rect x="280" y="100" width="170" height="126" rx="10"/><rect x="280" y="374" width="170" height="126" rx="10"/><rect x="530" y="228" width="170" height="144" rx="10"/><rect x="775" y="228" width="130" height="144" rx="10"/></g><g fill="none" stroke="#26332e" stroke-width="4"><path d="M205 300h48c27 0 27-137 27-137M205 300h48c27 0 27 137 27 137M450 163h40c20 0 20 137 40 137M450 437h40c20 0 20-137 40-137M700 300h75"/><path d="m764 288 12 12-12 12"/></g><g fill="#2b725f"><circle cx="130" cy="300" r="38"/><circle cx="365" cy="163" r="18"/><circle cx="365" cy="437" r="18"/></g><g stroke="#426b8c" stroke-width="5"><path d="M570 270h90M570 300h90M570 330h65"/></g><path d="M804 269h72v62h-72z" fill="#fff" stroke="#426b8c" stroke-width="5"/><circle cx="736" cy="300" r="8" fill="#b87826"/></svg>
