<svg xmlns="http://www.w3.org/2000/svg" viewBox="0 0 800 600" role="img" aria-labelledby="t d"><title id="t">Research workflow</title><desc id="d">Five connected stages form a loop from reading through revisit.</desc><rect width="800" height="600" rx="24" fill="#e8e9e5"/><circle cx="400" cy="300" r="175" fill="none" stroke="#26332e" stroke-width="4" stroke-dasharray="10 14"/><g fill="#fff" stroke="#26332e" stroke-width="4"><circle cx="400" cy="112" r="48"/><circle cx="578" cy="242" r="48"/><circle cx="510" cy="452" r="48"/><circle cx="290" cy="452" r="48"/><circle cx="222" cy="242" r="48"/></g><g fill="none" stroke="#2b725f" stroke-width="5" stroke-linecap="round"><path d="m383 112 13-12 22 24"/><path d="m559 243 14 14 26-31"/><path d="M491 437h38M491 451h28M491 465h18"/><path d="m273 457 13-25 12 25 12-25"/><path d="M204 229h36M204 242h25M204 255h31"/></g><circle cx="400" cy="300" r="54" fill="#426b8c"/><path d="M376 300h48M400 276v48" stroke="#fff" stroke-width="5" stroke-linecap="round"/><circle cx="610" cy="402" r="10" fill="#b87826"/></svg>
