<svg xmlns="http://www.w3.org/2000/svg" viewBox="0 0 800 600" role="img" aria-labelledby="t d"><title id="t">Efficient AI systems</title><desc id="d">A model backbone reuses cached state while compact delta paths update it.</desc><rect width="800" height="600" rx="24" fill="#e8e9e5"/><g fill="none" stroke="#26332e" stroke-width="4"><path d="M105 160h470v280H105z"/><path d="M175 160v280M245 160v280M315 160v280M385 160v280M455 160v280M525 160v280"/><path d="M575 220h105v120H575"/><path d="M680 280h55M735 280v160H575"/></g><g fill="#426b8c"><rect x="118" y="176" width="44" height="248" rx="5"/><rect x="258" y="176" width="44" height="248" rx="5"/><rect x="398" y="176" width="44" height="248" rx="5"/></g><g fill="#2b725f"><rect x="188" y="196" width="44" height="54" rx="5"/><rect x="328" y="273" width="44" height="54" rx="5"/><rect x="468" y="350" width="44" height="54" rx="5"/></g><path d="M140 115c150-65 322-64 470 0" fill="none" stroke="#b87826" stroke-width="5" stroke-linecap="round" stroke-dasharray="8 14"/><circle cx="140" cy="115" r="9" fill="#b87826"/><circle cx="610" cy="115" r="9" fill="#b87826"/></svg>
