<svg xmlns="http://www.w3.org/2000/svg" viewBox="0 0 800 600" role="img" aria-labelledby="t d"><title id="t">Vision-language-action system</title><desc id="d">Observation and language flow through shared representation into an action trajectory.</desc><rect width="800" height="600" rx="24" fill="#e8e9e5"/><g fill="none" stroke="#26332e" stroke-width="4"><rect x="58" y="105" width="145" height="105" rx="8"/><path d="m80 185 35-42 31 25 30-39"/><rect x="58" y="390" width="145" height="105" rx="8"/><path d="M84 420h92M84 444h70M84 468h54"/><path d="M203 158h112M203 442h112"/><rect x="315" y="220" width="190" height="160" rx="12"/><path d="M348 264h124M348 300h124M348 336h124"/><path d="M505 300h92"/><rect x="597" y="228" width="145" height="144" rx="72"/><path d="m630 330 33-70 44 92"/></g><g fill="#2b725f"><circle cx="315" cy="158" r="9"/><circle cx="315" cy="442" r="9"/><circle cx="505" cy="300" r="9"/></g><path d="M667 372c-18 70 22 113 64 91" fill="none" stroke="#426b8c" stroke-width="5" stroke-linecap="round"/><circle cx="731" cy="463" r="9" fill="#b87826"/></svg>
